<svg width="15" height="13" viewBox="0 0 15 13" fill="none" xmlns="http://www.w3.org/2000/svg">
<path fill-rule="evenodd" clip-rule="evenodd" d="M12.9354 0.729507L0.584717 2.88928L1.12572 5.71941L13.4766 3.55968L12.9354 0.729507ZM9.7517 2.04914L11.1267 1.80879L9.97027 3.40971L8.59527 3.65009L9.7517 2.04914ZM12.3554 1.86802L12.5636 2.95626L11.4256 3.1553L12.3554 1.86802ZM6.92116 2.54416L8.29628 2.3037L7.13985 3.90461L5.76484 4.14511L6.92116 2.54416ZM4.09081 3.03921L5.46585 2.79871L4.30938 4.39978L2.93438 4.64016L4.09081 3.03921ZM1.49757 3.49251L2.63554 3.29358L1.70564 4.58079L1.49757 3.49251Z" fill="black"/>
<path fill-rule="evenodd" clip-rule="evenodd" d="M1.12549 12.7245H13.6811V5.71942H1.12549V12.7245ZM2.18135 9.59724H12.6348V6.7201H2.18135V9.59724Z" fill="black"/>
</svg>
